<svg xmlns="http://www.w3.org/2000/svg" xmlns:xlink="http://www.w3.org/1999/xlink" width="1920" height="1080" viewBox="0 0 1920 1080">
  <defs>
    <linearGradient id="linear-gradient" x1="0.097" y1="-0.159" x2="0.903" y2="1.159" gradientUnits="objectBoundingBox">
      <stop offset="0.089" stop-color="#2559cd"/>
      <stop offset="0.41" stop-color="#1c4cc8"/>
      <stop offset="0.797" stop-color="#0f38c1"/>
    </linearGradient>
    <clipPath id="clip-path">
      <rect id="Rectangle_62" data-name="Rectangle 62" width="1920" height="1080" fill="none"/>
    </clipPath>
    <linearGradient id="linear-gradient-2" y1="0.5" x2="1" y2="0.5" gradientUnits="objectBoundingBox">
      <stop offset="0" stop-color="#fff"/>
      <stop offset="1" stop-color="#fbe9f5"/>
    </linearGradient>
    <linearGradient id="linear-gradient-3" x1="0" y1="0.5" x2="1" y2="0.5" xlink:href="#linear-gradient-2"/>
    <linearGradient id="linear-gradient-4" x1="-279.974" y1="-6501.72" x2="-278.974" y2="-6501.72" xlink:href="#linear-gradient-2"/>
    <linearGradient id="linear-gradient-5" x1="0" y1="0.5" x2="1" y2="0.5" xlink:href="#linear-gradient-2"/>
  </defs>
  <g id="OBJECTS" transform="translate(-74.19 -59.92)">
    <g id="Group_55" data-name="Group 55" transform="translate(74.19 59.92)">
      <g id="Group_54" data-name="Group 54">
        <g id="Group_52" data-name="Group 52">
          <rect id="Rectangle_61" data-name="Rectangle 61" width="1920" height="1080" fill="url(#linear-gradient)"/>
          <g id="Group_17" data-name="Group 17">
            <g id="Group_16" data-name="Group 16" clip-path="url(#clip-path)">
              <g id="Group_11" data-name="Group 11" transform="translate(798.559 397.957)" opacity="0.6" style="mix-blend-mode: overlay;isolation: isolate">
                <path id="Path_47" data-name="Path 47" d="M376.142,253.728a85.323,85.323,0,1,1,131.427,103.7" transform="translate(-288.919 -173.1)" fill="none" stroke="#fff" stroke-miterlimit="10" stroke-width="1"/>
                <path id="Path_48" data-name="Path 48" d="M483.723,322.146a85.344,85.344,0,0,1-110.5-88.129" transform="translate(-295.062 -121.258)" fill="none" stroke="#fff" stroke-miterlimit="10" stroke-width="1"/>
                <path id="Path_49" data-name="Path 49" d="M585.972,353.036c13.99,16.789,20.561,29.778,16.4,34.985-8.322,10.4-56.321-14.189-107.208-54.915s-85.4-82.171-77.075-92.57c4.151-5.186,18.17-1.669,37.5,8.214l6.683-4.9c-57.594-38.054-103.676-57.028-113.823-44.349-13.814,17.258,44.211,86.65,129.6,154.992s165.814,109.749,179.628,92.488c10.153-12.687-18.513-53.548-68.333-101.45" transform="translate(-346.409 -195.579)" fill="none" stroke="#fff" stroke-miterlimit="10" stroke-width="1"/>
              </g>
              <g id="Group_12" data-name="Group 12" transform="translate(1600.359 208.319)" opacity="0.6" style="mix-blend-mode: overlay;isolation: isolate">
                <circle id="Ellipse_14" data-name="Ellipse 14" cx="103.708" cy="103.708" r="103.708" transform="translate(0 54.077) rotate(-15.113)" fill="none" stroke="#fff" stroke-miterlimit="10" stroke-width="1"/>
                <path id="Path_50" data-name="Path 50" d="M728.649,180.4c-23.635,13.224-47.925,28.734-71.795,36.211a124.936,124.936,0,0,1-28.93,5.418,104.052,104.052,0,0,0,5.673,24.348,80.752,80.752,0,0,0,25.742-.2c25.04-4.168,55.857-22.984,83.846-38.362,27.848-15.806,62.029-28.311,85.72-24.333.783.111,1.531.238,2.262.378-.783-2.884-1.687-5.756-2.734-8.61a104.158,104.158,0,0,0-8.308-17.469,75.08,75.08,0,0,0-18.628-2.447C779.6,155.259,752.217,166.967,728.649,180.4Z" transform="translate(-603.895 -83.759)" fill="none" stroke="#fff" stroke-miterlimit="10" stroke-width="1"/>
                <path id="Path_51" data-name="Path 51" d="M670.419,201.458c18.185-7.214,40.412-11.2,61.085-15.949,20.752-4.612,42.879-11.772,56.065-21.579a65.441,65.441,0,0,0,11.684-11.118,103.866,103.866,0,0,0-10.59-8.014c-13.324,11.024-37.091,19.9-59.316,24.906-24.307,5.808-52.178,11.127-69.671,20.054-10.053,5.063-15.04,9.871-21.256,15.19-2.719,2.379-5.747,4.925-9.012,7.712a103.348,103.348,0,0,0-1.684,16.794C640.245,218.147,650.929,209.32,670.419,201.458Z" transform="translate(-604.28 -104.128)" fill="none" stroke="#fff" stroke-miterlimit="10" stroke-width="1"/>
                <path id="Path_52" data-name="Path 52" d="M761.785,203.224c20.015-6.844,41.521-15.489,57.256-24.639a102.559,102.559,0,0,0-1.807-11.652c-15.741,8.83-35.889,17.308-54.643,23.761-26.947,9.525-57.585,19.344-77.908,30.092-11.669,6.119-17.906,11.036-25.548,16.615-6.545,4.843-14.456,10.44-23.316,17.149q2.671,3.234,5.577,6.225c16.219-12.286,29.414-21.9,52.4-32.506C714.52,218.8,738.9,211.168,761.785,203.224Z" transform="translate(-588.628 -61.326)" fill="none" stroke="#fff" stroke-miterlimit="10" stroke-width="1"/>
                <path id="Path_53" data-name="Path 53" d="M631.166,198.049c23.688-6.043,51.53-22.9,77.028-36.907a231.016,231.016,0,0,1,42.38-18.942,103.7,103.7,0,0,0-119.409,55.848Z" transform="translate(-597.627 -115.492)" fill="none" stroke="#fff" stroke-miterlimit="10" stroke-width="1"/>
                <path id="Path_54" data-name="Path 54" d="M729.944,204.272c-23.635,13.221-47.925,28.734-71.795,36.211a130.417,130.417,0,0,1-17.628,4.142,104.22,104.22,0,0,0,38.863,20.191c20.8-7.709,43.768-21.415,65.092-33.131,17.554-9.962,37.619-18.61,55.992-22.65a104.024,104.024,0,0,0,8.894-29.5c-2.065-.188-4.242-.305-6.574-.334C780.9,179.132,753.512,190.837,729.944,204.272Z" transform="translate(-579.537 -37.6)" fill="none" stroke="#fff" stroke-miterlimit="10" stroke-width="1"/>
                <path id="Path_55" data-name="Path 55" d="M661.825,233.621A103.861,103.861,0,0,0,744.474,197.2c-7.853-.006-15.735.364-25.877,3.494C700.914,206.034,681.192,219.455,661.825,233.621Z" transform="translate(-538.347 -2.799)" fill="none" stroke="#fff" stroke-miterlimit="10" stroke-width="1"/>
              </g>
              <g id="Group_13" data-name="Group 13" transform="translate(521.934 -42.341)" opacity="0.6" style="mix-blend-mode: overlay;isolation: isolate">
                <circle id="Ellipse_15" data-name="Ellipse 15" cx="73.337" cy="73.337" r="73.337" transform="translate(0 133.779) rotate(-65.795)" fill="none" stroke="#fff" stroke-miterlimit="10" stroke-width="1"/>
                <path id="Path_56" data-name="Path 56" d="M342.7,95.352c-18.1-6.257-37.716-11.784-52.894-20.866A88.577,88.577,0,0,1,273.339,61.76a73.491,73.491,0,0,0-10.188,14.45A57.175,57.175,0,0,0,275.369,89.7c13.981,11.259,38.414,18.678,59.7,26.217,21.447,7.266,44.132,19.429,53.176,33.809.311.463.6.918.865,1.37,1.153-1.769,2.244-3.6,3.259-5.494a73.58,73.58,0,0,0,5.313-12.6,52.859,52.859,0,0,0-7.472-10.986C379.946,110.424,360.881,101.474,342.7,95.352Z" transform="translate(-230.764 -14.021)" fill="none" stroke="#fff" stroke-miterlimit="10" stroke-width="1"/>
                <path id="Path_57" data-name="Path 57" d="M278.175,56.472c14.333,9.663,36.335,16.434,55.725,23.3a163.344,163.344,0,0,1,29.937,13.462,73.335,73.335,0,0,0-85.662-36.766Z" transform="translate(-201.715 -29.925)" fill="none" stroke="#fff" stroke-miterlimit="10" stroke-width="1"/>
                <path id="Path_58" data-name="Path 58" d="M323.552,107.663c-18.1-6.257-37.716-11.784-52.894-20.866a92.073,92.073,0,0,1-10.481-7.36,73.777,73.777,0,0,0,7.624,30.019c13.858,7.354,31.9,13.031,48.116,18.777,13.518,4.579,27.522,11.106,38.3,18.9a73.529,73.529,0,0,0,19.754-9.182c-.871-1.179-1.833-2.382-2.913-3.626C360.8,122.736,341.731,113.786,323.552,107.663Z" transform="translate(-236.517 20.157)" fill="none" stroke="#fff" stroke-miterlimit="10" stroke-width="1"/>
              </g>
              <path id="Path_59" data-name="Path 59" d="M674.636,126.735a56.134,56.134,0,1,1-8.754-78.9A56.137,56.137,0,0,1,674.636,126.735Z" transform="translate(893.505 -107.09)" fill="none" stroke="#fff" stroke-miterlimit="10" stroke-width="1" opacity="0.6" style="mix-blend-mode: overlay;isolation: isolate"/>
              <path id="Path_60" data-name="Path 60" d="M350.675,144.417a27.78,27.78,0,1,1-4.33-39.048A27.778,27.778,0,0,1,350.675,144.417Z" transform="translate(364.749 16.178)" fill="none" stroke="#fff" stroke-miterlimit="10" stroke-width="1" opacity="0.6" style="mix-blend-mode: overlay;isolation: isolate"/>
              <g id="Group_14" data-name="Group 14" transform="translate(1053.845 194.586)" opacity="0.6" style="mix-blend-mode: overlay;isolation: isolate">
                <circle id="Ellipse_16" data-name="Ellipse 16" cx="46.215" cy="46.215" r="46.215" transform="translate(0 85.465) rotate(-67.614)" fill="none" stroke="#fff" stroke-miterlimit="10" stroke-width="1"/>
                <circle id="Ellipse_17" data-name="Ellipse 17" cx="10.947" cy="10.947" r="10.947" transform="translate(26.223 35.806)" fill="none" stroke="#fff" stroke-miterlimit="10" stroke-width="1"/>
                <path id="Path_61" data-name="Path 61" d="M459.046,139.253a4.214,4.214,0,1,1-4.215-4.213A4.216,4.216,0,0,1,459.046,139.253Z" transform="translate(-400.205 -109.261)" fill="none" stroke="#fff" stroke-miterlimit="10" stroke-width="1"/>
                <path id="Path_62" data-name="Path 62" d="M470.466,140.691a4.214,4.214,0,1,1-4.213-4.215A4.213,4.213,0,0,1,470.466,140.691Z" transform="translate(-378.125 -106.484)" fill="none" stroke="#fff" stroke-miterlimit="10" stroke-width="1"/>
                <path id="Path_63" data-name="Path 63" d="M453.838,158.937a4.214,4.214,0,1,1-4.213-4.215A4.213,4.213,0,0,1,453.838,158.937Z" transform="translate(-410.275 -71.205)" fill="none" stroke="#fff" stroke-miterlimit="10" stroke-width="1"/>
                <path id="Path_64" data-name="Path 64" d="M471.658,146.291a8.38,8.38,0,1,1-8.381-8.378A8.381,8.381,0,0,1,471.658,146.291Z" transform="translate(-391.928 -103.706)" fill="none" stroke="#fff" stroke-miterlimit="10" stroke-width="1"/>
                <path id="Path_65" data-name="Path 65" d="M486.185,155.528A16.6,16.6,0,0,0,463,179,46.373,46.373,0,0,0,486.185,155.528Z" transform="translate(-383.459 -76.596)" fill="none" stroke="#fff" stroke-miterlimit="10" stroke-width="1"/>
              </g>
              <path id="Path_66" data-name="Path 66" d="M508.576,82.2l-2.49-2.491,2.49-2.491a.755.755,0,0,0-1.068-1.068l-2.49,2.491-2.491-2.491a.755.755,0,1,0-1.068,1.068l2.491,2.491L501.459,82.2a.755.755,0,1,0,1.068,1.068l2.491-2.491,2.49,2.491a.755.755,0,0,0,1.068-1.068Z" transform="translate(751.513 -28.972)" fill="#fff"/>
              <path id="Path_67" data-name="Path 67" d="M491.579,309.6l-2.491-2.491,2.491-2.491a.755.755,0,0,0-1.068-1.068l-2.49,2.491-2.491-2.491a.755.755,0,0,0-1.068,1.068l2.488,2.491-2.488,2.491a.755.755,0,0,0,1.068,1.068l2.491-2.491,2.49,2.491a.755.755,0,0,0,1.068-1.068Z" transform="translate(718.649 410.705)" fill="#fff"/>
              <path id="Path_68" data-name="Path 68" d="M97.767,87.851l-2.491-2.491,2.491-2.491A.755.755,0,0,0,96.7,81.8l-2.491,2.491L91.718,81.8A.755.755,0,0,0,90.65,82.87l2.491,2.491L90.65,87.851a.755.755,0,0,0,1.068,1.068l2.491-2.491L96.7,88.919a.755.755,0,0,0,1.068-1.068Z" transform="translate(-42.792 -18.04)" fill="#fff"/>
              <path id="Path_69" data-name="Path 69" d="M140.453,312.372l-2.491-2.491,2.491-2.491a.755.755,0,1,0-1.068-1.068l-2.491,2.491-2.491-2.491a.755.755,0,0,0-1.068,1.068l2.491,2.491-2.491,2.491a.755.755,0,0,0,1.068,1.068l2.491-2.491,2.491,2.491a.755.755,0,0,0,1.068-1.068Z" transform="translate(39.742 416.075)" fill="#fff"/>
              <path id="Path_70" data-name="Path 70" d="M353.251,127.859l-2.491-2.491,2.491-2.491a.755.755,0,0,0-1.068-1.068l-2.491,2.491L347.2,121.81a.755.755,0,0,0-1.068,1.068l2.488,2.491-2.488,2.491a.755.755,0,1,0,1.068,1.068l2.491-2.491,2.491,2.491a.755.755,0,1,0,1.068-1.068Z" transform="translate(451.19 59.32)" fill="#fff"/>
              <path id="Path_71" data-name="Path 71" d="M598.57,293.156l-2.488-2.491,2.488-2.491a.755.755,0,0,0-1.068-1.068l-2.491,2.491-2.49-2.491a.755.755,0,1,0-1.068,1.068l2.491,2.491-2.491,2.491a.755.755,0,0,0,1.068,1.068l2.49-2.488,2.491,2.488a.755.755,0,1,0,1.068-1.068Z" transform="translate(925.521 378.924)" fill="#fff"/>
              <g id="Group_15" data-name="Group 15" transform="translate(44.297 26.768)" opacity="0.6" style="mix-blend-mode: overlay;isolation: isolate">
                <path id="Path_72" data-name="Path 72" d="M588.52,149.051a1.536,1.536,0,1,1-1.534-1.537A1.534,1.534,0,0,1,588.52,149.051Z" transform="translate(870.041 82.676)" fill="url(#linear-gradient-2)"/>
                <path id="Path_73" data-name="Path 73" d="M621.483,83.574a2.2,2.2,0,1,1-2.2-2.2A2.2,2.2,0,0,1,621.483,83.574Z" transform="translate(931.221 -45.201)" fill="url(#linear-gradient-3)"/>
                <path id="Path_74" data-name="Path 74" d="M341.957,270.546a4.349,4.349,0,1,1-4.347-4.347A4.35,4.35,0,0,1,341.957,270.546Z" transform="translate(382.428 312.155)" fill="#fff"/>
                <path id="Path_75" data-name="Path 75" d="M382.273,192.254A7.249,7.249,0,1,1,375.024,185,7.251,7.251,0,0,1,382.273,192.254Z" transform="translate(449.165 155.165)" fill="#fff"/>
                <path id="Path_76" data-name="Path 76" d="M502.391,196.664a4.349,4.349,0,1,1-4.347-4.35A4.347,4.347,0,0,1,502.391,196.664Z" transform="translate(692.629 169.297)" fill="#fff"/>
                <path id="Path_77" data-name="Path 77" d="M390.62,164.353a4.349,4.349,0,1,1-4.35-4.35A4.35,4.35,0,0,1,390.62,164.353Z" transform="translate(476.518 106.824)" fill="#fff"/>
                <path id="Path_78" data-name="Path 78" d="M665.37,261.682a4.349,4.349,0,1,1-4.35-4.347A4.351,4.351,0,0,1,665.37,261.682Z" transform="translate(1007.752 295.015)" fill="#fff"/>
                <path id="Path_79" data-name="Path 79" d="M640.655,245.265a7.247,7.247,0,1,1-7.246-7.246A7.247,7.247,0,0,1,640.655,245.265Z" transform="translate(948.756 257.669)" fill="#fff"/>
                <path id="Path_80" data-name="Path 80" d="M316.32,292.1a4.349,4.349,0,1,1-4.347-4.35A4.347,4.347,0,0,1,316.32,292.1Z" transform="translate(332.858 353.817)" fill="#fff"/>
                <path id="Path_81" data-name="Path 81" d="M602.5,121.349a1.828,1.828,0,1,1-1.828-1.828A1.825,1.825,0,0,1,602.5,121.349Z" transform="translate(895.944 28.551)" fill="#fff"/>
                <path id="Path_82" data-name="Path 82" d="M658.48,76.291a7.247,7.247,0,1,1-7.249-7.246A7.248,7.248,0,0,1,658.48,76.291Z" transform="translate(983.221 -69.045)" fill="#fff"/>
                <path id="Path_83" data-name="Path 83" d="M662.484,99.241a2.609,2.609,0,1,1-2.611-2.611A2.608,2.608,0,0,1,662.484,99.241Z" transform="translate(1008.898 -15.709)" fill="#fff"/>
                <path id="Path_84" data-name="Path 84" d="M250.893,128.184a2.2,2.2,0,1,1-2.194,2.2A2.2,2.2,0,0,1,250.893,128.184Z" transform="translate(218.93 45.301)" fill="url(#linear-gradient-4)"/>
                <path id="Path_85" data-name="Path 85" d="M288.671,146.68a1.826,1.826,0,1,1-1.828,1.828A1.827,1.827,0,0,1,288.671,146.68Z" transform="translate(292.682 81.063)" fill="#fff"/>
                <path id="Path_86" data-name="Path 86" d="M205.2,85.36a7.247,7.247,0,1,1-7.249,7.249A7.249,7.249,0,0,1,205.2,85.36Z" transform="translate(120.802 -37.5)" fill="#fff"/>
                <path id="Path_87" data-name="Path 87" d="M228.142,75.242a2.609,2.609,0,1,1-2.608,2.608A2.608,2.608,0,0,1,228.142,75.242Z" transform="translate(174.14 -57.063)" fill="#fff"/>
                <path id="Path_88" data-name="Path 88" d="M655.153,282.152a4.349,4.349,0,1,1-4.347-4.347A4.35,4.35,0,0,1,655.153,282.152Z" transform="translate(987.997 334.596)" fill="#fff"/>
                <path id="Path_89" data-name="Path 89" d="M89.29,282.05a4.349,4.349,0,1,1,4.347,4.347A4.348,4.348,0,0,1,89.29,282.05Z" transform="translate(-89.29 334.393)" fill="#fff"/>
                <path id="Path_90" data-name="Path 90" d="M117.825,302.285a7.249,7.249,0,1,1,7.249,7.249A7.247,7.247,0,0,1,117.825,302.285Z" transform="translate(-34.117 367.918)" fill="#fff"/>
                <path id="Path_91" data-name="Path 91" d="M99.506,261.577a4.349,4.349,0,1,1,4.35,4.35A4.35,4.35,0,0,1,99.506,261.577Z" transform="translate(-69.537 294.812)" fill="#fff"/>
                <path id="Path_92" data-name="Path 92" d="M100.626,121.192a1.537,1.537,0,1,1-1.537-1.537A1.539,1.539,0,0,1,100.626,121.192Z" transform="translate(-73.315 28.81)" fill="url(#linear-gradient-5)"/>
                <path id="Path_93" data-name="Path 93" d="M114.6,93.487a1.826,1.826,0,1,1-1.825-1.825A1.827,1.827,0,0,1,114.6,93.487Z" transform="translate(-47.41 -25.315)" fill="#fff"/>
              </g>
              <path id="Path_94" data-name="Path 94" d="M1921.683,367.88c-38.529,0-70.779,27.106-79.192,63.484-18.844-43.158-61.5-73.294-111.139-73.294a120.726,120.726,0,0,0-95.414,46.881c-20.4-38.863-60.8-65.341-107.329-65.341-43.044,0-80.829,22.67-102.4,56.828a77.782,77.782,0,0,0-129.624,14.2c-34.691-48.6-91.13-80.255-154.914-80.255-60.444,0-114.3,28.438-149.291,72.772-16.915-33.369-51.236-56.221-90.854-56.221-40.79,0-75.978,24.216-92.32,59.2a80.858,80.858,0,0,0-136.311,19.816c-15.376-50.022-61.5-86.342-116.008-86.342-47.633,0-88.84,27.754-108.745,68.137A53.857,53.857,0,0,0,361.7,401.2c-25.385-50.976-77.549-85.967-137.822-85.967-85.2,0-154.265,69.868-154.265,156.051V797.106H2003.039V450.177C2003.039,404.725,1966.615,367.88,1921.683,367.88Z" transform="translate(-83.039 433.741)" fill="#fff"/>
              <path id="Path_95" data-name="Path 95" d="M150.968,349.547c38.529,0,70.782,27.1,79.2,63.484,18.84-43.158,61.5-73.3,111.138-73.3a120.714,120.714,0,0,1,95.411,46.883c20.4-38.863,60.8-65.341,107.332-65.341,43.041,0,80.826,22.67,102.4,56.828a77.782,77.782,0,0,1,129.624,14.2c34.688-48.6,91.13-80.255,154.911-80.255,60.447,0,114.3,28.438,149.294,72.769,16.912-33.369,51.233-56.221,90.851-56.221,40.793,0,75.982,24.216,92.32,59.2a80.864,80.864,0,0,1,136.315,19.816c15.376-50.019,61.5-86.339,116.005-86.339,47.636,0,88.84,27.754,108.745,68.134a53.862,53.862,0,0,1,86.443-6.539c25.382-50.976,77.549-85.967,137.822-85.967,85.2,0,154.262,69.865,154.262,156.048V778.77H69.613V431.841C69.613,386.392,106.036,349.547,150.968,349.547Z" transform="translate(-83.039 398.294)" fill="#fff" style="mix-blend-mode: soft-light;isolation: isolate"/>
            </g>
          </g>
        </g>
      </g>
    </g>
  </g>
</svg>
